<svg id="visual" viewBox="0 0 900 450" width="900" height="450" xmlns="http://www.w3.org/2000/svg" xmlns:xlink="http://www.w3.org/1999/xlink" version="1.1"><rect x="0" y="0" width="900" height="450" fill="#1E2A38"></rect><defs><linearGradient id="grad1_0" x1="50%" y1="0%" x2="100%" y2="100%"><stop offset="10%" stop-color="#2aa198" stop-opacity="1"></stop><stop offset="90%" stop-color="#2aa198" stop-opacity="1"></stop></linearGradient></defs><defs><linearGradient id="grad1_1" x1="50%" y1="0%" x2="100%" y2="100%"><stop offset="10%" stop-color="#2aa198" stop-opacity="1"></stop><stop offset="90%" stop-color="#137784" stop-opacity="1"></stop></linearGradient></defs><defs><linearGradient id="grad1_2" x1="50%" y1="0%" x2="100%" y2="100%"><stop offset="10%" stop-color="#204e62" stop-opacity="1"></stop><stop offset="90%" stop-color="#137784" stop-opacity="1"></stop></linearGradient></defs><defs><linearGradient id="grad1_3" x1="50%" y1="0%" x2="100%" y2="100%"><stop offset="10%" stop-color="#204e62" stop-opacity="1"></stop><stop offset="90%" stop-color="#1e2a38" stop-opacity="1"></stop></linearGradient></defs><defs><linearGradient id="grad2_0" x1="0%" y1="0%" x2="50%" y2="100%"><stop offset="10%" stop-color="#2aa198" stop-opacity="1"></stop><stop offset="90%" stop-color="#2aa198" stop-opacity="1"></stop></linearGradient></defs><defs><linearGradient id="grad2_1" x1="0%" y1="0%" x2="50%" y2="100%"><stop offset="10%" stop-color="#137784" stop-opacity="1"></stop><stop offset="90%" stop-color="#2aa198" stop-opacity="1"></stop></linearGradient></defs><defs><linearGradient id="grad2_2" x1="0%" y1="0%" x2="50%" y2="100%"><stop offset="10%" stop-color="#137784" stop-opacity="1"></stop><stop offset="90%" stop-color="#204e62" stop-opacity="1"></stop></linearGradient></defs><defs><linearGradient id="grad2_3" x1="0%" y1="0%" x2="50%" y2="100%"><stop offset="10%" stop-color="#1e2a38" stop-opacity="1"></stop><stop offset="90%" stop-color="#204e62" stop-opacity="1"></stop></linearGradient></defs><g transform="translate(900, 0)"><path d="M0 360C-39.5 326.3 -79 292.6 -110.6 267C-142.2 241.4 -166 223.8 -206.5 206.5C-247 189.2 -304.2 172.1 -332.6 137.8C-361 103.4 -360.5 51.7 -360 0L0 0Z" fill="#213c4d"></path><path d="M0 270C-29.6 244.7 -59.2 219.5 -82.9 200.3C-106.7 181 -124.5 167.8 -154.9 154.9C-185.2 141.9 -228.2 129.1 -249.4 103.3C-270.7 77.5 -270.4 38.8 -270 0L0 0Z" fill="#1a6274"></path><path d="M0 180C-19.7 163.2 -39.5 146.3 -55.3 133.5C-71.1 120.7 -83 111.9 -103.2 103.2C-123.5 94.6 -152.1 86.1 -166.3 68.9C-180.5 51.7 -180.2 25.8 -180 0L0 0Z" fill="#168c90"></path><path d="M0 90C-9.9 81.6 -19.7 73.2 -27.6 66.8C-35.6 60.3 -41.5 55.9 -51.6 51.6C-61.7 47.3 -76.1 43 -83.1 34.4C-90.2 25.8 -90.1 12.9 -90 0L0 0Z" fill="#2aa198"></path></g><g transform="translate(0, 450)"><path d="M0 -360C33.8 -326.1 67.6 -292.2 116.3 -280.9C165.1 -269.6 228.9 -280.9 254.6 -254.6C280.2 -228.2 267.8 -164.3 279 -115.6C290.2 -66.9 325.1 -33.4 360 0L0 0Z" fill="#213c4d"></path><path d="M0 -270C25.3 -244.6 50.7 -219.1 87.3 -210.6C123.8 -202.2 171.7 -210.7 190.9 -190.9C210.2 -171.2 200.8 -123.2 209.3 -86.7C217.7 -50.2 243.8 -25.1 270 0L0 0Z" fill="#1a6274"></path><path d="M0 -180C16.9 -163 33.8 -146.1 58.2 -140.4C82.6 -134.8 114.4 -140.4 127.3 -127.3C140.1 -114.1 133.9 -82.1 139.5 -57.8C145.1 -33.4 162.6 -16.7 180 0L0 0Z" fill="#168c90"></path><path d="M0 -90C8.4 -81.5 16.9 -73 29.1 -70.2C41.3 -67.4 57.2 -70.2 63.6 -63.6C70.1 -57.1 66.9 -41.1 69.8 -28.9C72.6 -16.7 81.3 -8.4 90 0L0 0Z" fill="#2aa198"></path></g></svg>