<svg id="visual" viewBox="0 0 900 450" width="900" height="450" xmlns="http://www.w3.org/2000/svg" xmlns:xlink="http://www.w3.org/1999/xlink" version="1.1"><rect x="0" y="0" width="900" height="450" fill="#303030"></rect><defs><linearGradient id="grad1_0" x1="50%" y1="100%" x2="100%" y2="0%"><stop offset="10%" stop-color="#ffffff" stop-opacity="1"></stop><stop offset="90%" stop-color="#ffffff" stop-opacity="1"></stop></linearGradient></defs><defs><linearGradient id="grad1_1" x1="50%" y1="100%" x2="100%" y2="0%"><stop offset="10%" stop-color="#ffffff" stop-opacity="1"></stop><stop offset="90%" stop-color="#b4b4b4" stop-opacity="1"></stop></linearGradient></defs><defs><linearGradient id="grad1_2" x1="50%" y1="100%" x2="100%" y2="0%"><stop offset="10%" stop-color="#6e6e6e" stop-opacity="1"></stop><stop offset="90%" stop-color="#b4b4b4" stop-opacity="1"></stop></linearGradient></defs><defs><linearGradient id="grad1_3" x1="50%" y1="100%" x2="100%" y2="0%"><stop offset="10%" stop-color="#6e6e6e" stop-opacity="1"></stop><stop offset="90%" stop-color="#303030" stop-opacity="1"></stop></linearGradient></defs><defs><linearGradient id="grad2_0" x1="0%" y1="100%" x2="50%" y2="0%"><stop offset="10%" stop-color="#ffffff" stop-opacity="1"></stop><stop offset="90%" stop-color="#ffffff" stop-opacity="1"></stop></linearGradient></defs><defs><linearGradient id="grad2_1" x1="0%" y1="100%" x2="50%" y2="0%"><stop offset="10%" stop-color="#b4b4b4" stop-opacity="1"></stop><stop offset="90%" stop-color="#ffffff" stop-opacity="1"></stop></linearGradient></defs><defs><linearGradient id="grad2_2" x1="0%" y1="100%" x2="50%" y2="0%"><stop offset="10%" stop-color="#b4b4b4" stop-opacity="1"></stop><stop offset="90%" stop-color="#6e6e6e" stop-opacity="1"></stop></linearGradient></defs><defs><linearGradient id="grad2_3" x1="0%" y1="100%" x2="50%" y2="0%"><stop offset="10%" stop-color="#303030" stop-opacity="1"></stop><stop offset="90%" stop-color="#6e6e6e" stop-opacity="1"></stop></linearGradient></defs><g transform="translate(900, 450)"><path d="M-360 0C-326.3 -39.5 -292.6 -79 -267 -110.6C-241.4 -142.2 -223.8 -166 -206.5 -206.5C-189.2 -247 -172.1 -304.2 -137.8 -332.6C-103.4 -361 -51.7 -360.5 0 -360L0 0Z" fill="#4e4e4e"></path><path d="M-270 0C-244.7 -29.6 -219.5 -59.2 -200.3 -82.9C-181 -106.7 -167.8 -124.5 -154.9 -154.9C-141.9 -185.2 -129.1 -228.2 -103.3 -249.4C-77.5 -270.7 -38.8 -270.4 0 -270L0 0Z" fill="#909090"></path><path d="M-180 0C-163.2 -19.7 -146.3 -39.5 -133.5 -55.3C-120.7 -71.1 -111.9 -83 -103.2 -103.2C-94.6 -123.5 -86.1 -152.1 -68.9 -166.3C-51.7 -180.5 -25.8 -180.2 0 -180L0 0Z" fill="#d9d9d9"></path><path d="M-90 0C-81.6 -9.9 -73.2 -19.7 -66.8 -27.6C-60.3 -35.6 -55.9 -41.5 -51.6 -51.6C-47.3 -61.7 -43 -76.1 -34.4 -83.1C-25.8 -90.2 -12.9 -90.1 0 -90L0 0Z" fill="#ffffff"></path></g><g transform="translate(0, 0)"><path d="M360 0C326.1 33.8 292.2 67.6 280.9 116.3C269.6 165.1 280.9 228.9 254.6 254.6C228.2 280.2 164.3 267.8 115.6 279C66.9 290.2 33.4 325.1 0 360L0 0Z" fill="#4e4e4e"></path><path d="M270 0C244.6 25.3 219.1 50.7 210.6 87.3C202.2 123.8 210.7 171.7 190.9 190.9C171.2 210.2 123.2 200.8 86.7 209.3C50.2 217.7 25.1 243.8 0 270L0 0Z" fill="#909090"></path><path d="M180 0C163 16.9 146.1 33.8 140.4 58.2C134.8 82.6 140.4 114.4 127.3 127.3C114.1 140.1 82.1 133.9 57.8 139.5C33.4 145.1 16.7 162.6 0 180L0 0Z" fill="#d9d9d9"></path><path d="M90 0C81.5 8.4 73 16.9 70.2 29.1C67.4 41.3 70.2 57.2 63.6 63.6C57.1 70.1 41.1 66.9 28.9 69.8C16.7 72.6 8.4 81.3 0 90L0 0Z" fill="#ffffff"></path></g></svg>