<svg id="visual" viewBox="0 0 900 450" width="900" height="450" xmlns="http://www.w3.org/2000/svg" xmlns:xlink="http://www.w3.org/1999/xlink" version="1.1"><g stroke-width="1" stroke-linejoin="bevel"><path d="M398 233.3L401 270L425 277Z" fill="#e0e0e0" stroke="#e0e0e0"></path><path d="M425 277L437 279.3L398 233.3Z" fill="#c1d4d1" stroke="#c1d4d1"></path><path d="M401 270L429 293.3L425 277Z" fill="#80bbb4" stroke="#80bbb4"></path><path d="M425 277L429 293.3L437 279.3Z" fill="#80bbb4" stroke="#80bbb4"></path><path d="M459 167.5L419 178.8L398 233.3Z" fill="#6fb4ad" stroke="#6fb4ad"></path><path d="M356 197L353 213.8L398 233.3Z" fill="#91c1bb" stroke="#91c1bb"></path><path d="M398 233.3L340 233.3L401 270Z" fill="#a1c7c2" stroke="#a1c7c2"></path><path d="M353 213.8L340 233.3L398 233.3Z" fill="#46a79f" stroke="#46a79f"></path><path d="M401 270L375 349.8L429 293.3Z" fill="#b1cdca" stroke="#b1cdca"></path><path d="M419 178.8L356 197L398 233.3Z" fill="#d1dad8" stroke="#d1dad8"></path><path d="M353 213.8L333 207L340 233.3Z" fill="#91c1bb" stroke="#91c1bb"></path><path d="M437 279.3L459 167.5L398 233.3Z" fill="#46a79f" stroke="#46a79f"></path><path d="M419 178.8L361 175.8L356 197Z" fill="#b1cdca" stroke="#b1cdca"></path><path d="M356 197L333 207L353 213.8Z" fill="#6fb4ad" stroke="#6fb4ad"></path><path d="M343 119.3L361 175.8L419 178.8Z" fill="#80bbb4" stroke="#80bbb4"></path><path d="M361 175.8L333 207L356 197Z" fill="#5caea6" stroke="#5caea6"></path><path d="M340 233.3L375 349.8L401 270Z" fill="#c1d4d1" stroke="#c1d4d1"></path><path d="M548 251.3L539 213.3L437 279.3Z" fill="#80bbb4" stroke="#80bbb4"></path><path d="M437 279.3L539 213.3L459 167.5Z" fill="#91c1bb" stroke="#91c1bb"></path><path d="M548 251.3L437 279.3L520 370.5Z" fill="#5caea6" stroke="#5caea6"></path><path d="M539 213.3L509 159.8L459 167.5Z" fill="#6fb4ad" stroke="#6fb4ad"></path><path d="M343 119.3L302 161.8L361 175.8Z" fill="#80bbb4" stroke="#80bbb4"></path><path d="M520 370.5L437 279.3L429 293.3Z" fill="#a1c7c2" stroke="#a1c7c2"></path><path d="M333 207L292 198L340 233.3Z" fill="#b1cdca" stroke="#b1cdca"></path><path d="M340 233.3L319 365.5L375 349.8Z" fill="#2aa198" stroke="#2aa198"></path><path d="M302 161.8L292 198L333 207Z" fill="#e0e0e0" stroke="#e0e0e0"></path><path d="M375 349.8L466 389.5L429 293.3Z" fill="#6fb4ad" stroke="#6fb4ad"></path><path d="M343 119.3L419 178.8L449 96.3Z" fill="#e0e0e0" stroke="#e0e0e0"></path><path d="M361 175.8L302 161.8L333 207Z" fill="#d1dad8" stroke="#d1dad8"></path><path d="M466 389.5L486 383.8L429 293.3Z" fill="#80bbb4" stroke="#80bbb4"></path><path d="M449 96.3L419 178.8L459 167.5Z" fill="#80bbb4" stroke="#80bbb4"></path><path d="M308 367.5L319 365.5L256 273.3Z" fill="#6fb4ad" stroke="#6fb4ad"></path><path d="M375 349.8L430 450L466 389.5Z" fill="#91c1bb" stroke="#91c1bb"></path><path d="M509 159.8L449 96.3L459 167.5Z" fill="#b1cdca" stroke="#b1cdca"></path><path d="M486 383.8L520 370.5L429 293.3Z" fill="#6fb4ad" stroke="#6fb4ad"></path><path d="M539 213.3L560 173L509 159.8Z" fill="#6fb4ad" stroke="#6fb4ad"></path><path d="M509 159.8L541 132.5L449 96.3Z" fill="#e0e0e0" stroke="#e0e0e0"></path><path d="M548 251.3L560 173L539 213.3Z" fill="#5caea6" stroke="#5caea6"></path><path d="M256 273.3L319 365.5L340 233.3Z" fill="#5caea6" stroke="#5caea6"></path><path d="M452 450L484 413.8L466 389.5Z" fill="#b1cdca" stroke="#b1cdca"></path><path d="M238 190.8L256 273.3L292 198Z" fill="#46a79f" stroke="#46a79f"></path><path d="M292 198L256 273.3L340 233.3Z" fill="#2aa198" stroke="#2aa198"></path><path d="M520 370.5L565 333.8L548 251.3Z" fill="#a1c7c2" stroke="#a1c7c2"></path><path d="M648 171.8L639 164L560 173Z" fill="#2aa198" stroke="#2aa198"></path><path d="M560 173L541 132.5L509 159.8Z" fill="#91c1bb" stroke="#91c1bb"></path><path d="M550 368.5L565 348.5L565 333.8Z" fill="#e0e0e0" stroke="#e0e0e0"></path><path d="M595 303.5L592 284L565 333.8Z" fill="#c1d4d1" stroke="#c1d4d1"></path><path d="M565 333.8L592 284L548 251.3Z" fill="#46a79f" stroke="#46a79f"></path><path d="M466 389.5L484 413.8L486 383.8Z" fill="#91c1bb" stroke="#91c1bb"></path><path d="M486 383.8L484 413.8L520 370.5Z" fill="#c1d4d1" stroke="#c1d4d1"></path><path d="M520 370.5L550 368.5L565 333.8Z" fill="#d1dad8" stroke="#d1dad8"></path><path d="M430 450L375 349.8L330 450Z" fill="#91c1bb" stroke="#91c1bb"></path><path d="M548 414.8L550 368.5L520 370.5Z" fill="#80bbb4" stroke="#80bbb4"></path><path d="M565 348.5L595 303.5L565 333.8Z" fill="#6fb4ad" stroke="#6fb4ad"></path><path d="M212 123.3L246 178.5L302 161.8Z" fill="#b1cdca" stroke="#b1cdca"></path><path d="M302 161.8L246 178.5L292 198Z" fill="#46a79f" stroke="#46a79f"></path><path d="M246 178.5L238 190.8L292 198Z" fill="#91c1bb" stroke="#91c1bb"></path><path d="M256 273.3L273 376.5L308 367.5Z" fill="#46a79f" stroke="#46a79f"></path><path d="M330 450L375 349.8L319 365.5Z" fill="#80bbb4" stroke="#80bbb4"></path><path d="M191 326.8L273 376.5L256 273.3Z" fill="#80bbb4" stroke="#80bbb4"></path><path d="M330 450L319 365.5L308 367.5Z" fill="#5caea6" stroke="#5caea6"></path><path d="M430 450L452 450L466 389.5Z" fill="#c1d4d1" stroke="#c1d4d1"></path><path d="M484 413.8L548 414.8L520 370.5Z" fill="#a1c7c2" stroke="#a1c7c2"></path><path d="M550 368.5L603 450L565 348.5Z" fill="#46a79f" stroke="#46a79f"></path><path d="M565 348.5L668 376.5L595 303.5Z" fill="#2aa198" stroke="#2aa198"></path><path d="M508 450L548 414.8L484 413.8Z" fill="#d1dad8" stroke="#d1dad8"></path><path d="M434 0L357 45.5L449 96.3Z" fill="#a1c7c2" stroke="#a1c7c2"></path><path d="M449 96.3L357 45.5L343 119.3Z" fill="#6fb4ad" stroke="#6fb4ad"></path><path d="M343 119.3L300 59.5L302 161.8Z" fill="#a1c7c2" stroke="#a1c7c2"></path><path d="M452 450L508 450L484 413.8Z" fill="#6fb4ad" stroke="#6fb4ad"></path><path d="M303 450L330 450L308 367.5Z" fill="#80bbb4" stroke="#80bbb4"></path><path d="M560 173L596 116.8L541 132.5Z" fill="#2aa198" stroke="#2aa198"></path><path d="M541 132.5L512 20.3L449 96.3Z" fill="#6fb4ad" stroke="#6fb4ad"></path><path d="M639 164L596 116.8L560 173Z" fill="#5caea6" stroke="#5caea6"></path><path d="M560 173L548 251.3L648 171.8Z" fill="#6fb4ad" stroke="#6fb4ad"></path><path d="M357 45.5L300 59.5L343 119.3Z" fill="#b1cdca" stroke="#b1cdca"></path><path d="M246 178.5L212 123.3L238 190.8Z" fill="#b1cdca" stroke="#b1cdca"></path><path d="M273 376.5L303 450L308 367.5Z" fill="#e0e0e0" stroke="#e0e0e0"></path><path d="M648 171.8L548 251.3L592 284Z" fill="#2aa198" stroke="#2aa198"></path><path d="M273 376.5L292 450L303 450Z" fill="#e0e0e0" stroke="#e0e0e0"></path><path d="M715 305.3L648 171.8L592 284Z" fill="#6fb4ad" stroke="#6fb4ad"></path><path d="M655 105.5L606 77.5L596 116.8Z" fill="#80bbb4" stroke="#80bbb4"></path><path d="M133 197L191 326.8L256 273.3Z" fill="#91c1bb" stroke="#91c1bb"></path><path d="M273 376.5L259 452.8L292 450Z" fill="#c1d4d1" stroke="#c1d4d1"></path><path d="M300 59.5L212 123.3L302 161.8Z" fill="#c1d4d1" stroke="#c1d4d1"></path><path d="M125 205L163 336.5L191 326.8Z" fill="#80bbb4" stroke="#80bbb4"></path><path d="M191 326.8L192 345.5L273 376.5Z" fill="#e0e0e0" stroke="#e0e0e0"></path><path d="M589 51.5L541 132.5L596 116.8Z" fill="#b1cdca" stroke="#b1cdca"></path><path d="M589 51.5L512 20.3L541 132.5Z" fill="#d1dad8" stroke="#d1dad8"></path><path d="M462 0L434 0L449 96.3Z" fill="#c1d4d1" stroke="#c1d4d1"></path><path d="M357 45.5L304 2.3L300 59.5Z" fill="#46a79f" stroke="#46a79f"></path><path d="M512 20.3L462 0L449 96.3Z" fill="#b1cdca" stroke="#b1cdca"></path><path d="M655 105.5L596 116.8L639 164Z" fill="#6fb4ad" stroke="#6fb4ad"></path><path d="M203 450L259 452.8L273 376.5Z" fill="#e0e0e0" stroke="#e0e0e0"></path><path d="M292 450L259 452.8L303 450Z" fill="#e0e0e0" stroke="#e0e0e0"></path><path d="M303 450L259 452.8L330 450Z" fill="#d1dad8" stroke="#d1dad8"></path><path d="M330 450L259 452.8L430 450Z" fill="#91c1bb" stroke="#91c1bb"></path><path d="M430 450L259 452.8L452 450Z" fill="#46a79f" stroke="#46a79f"></path><path d="M452 450L821 459.8L508 450Z" fill="#e0e0e0" stroke="#e0e0e0"></path><path d="M370 -10.7L352 0L357 45.5Z" fill="#b1cdca" stroke="#b1cdca"></path><path d="M300 59.5L240 48.5L212 123.3Z" fill="#d1dad8" stroke="#d1dad8"></path><path d="M606 77.5L589 51.5L596 116.8Z" fill="#5caea6" stroke="#5caea6"></path><path d="M352 0L341 0L357 45.5Z" fill="#46a79f" stroke="#46a79f"></path><path d="M434 0L370 -10.7L357 45.5Z" fill="#c1d4d1" stroke="#c1d4d1"></path><path d="M352 0L370 -10.7L341 0Z" fill="#46a79f" stroke="#46a79f"></path><path d="M462 0L370 -10.7L434 0Z" fill="#b1cdca" stroke="#b1cdca"></path><path d="M192 345.5L185 376.8L273 376.5Z" fill="#2aa198" stroke="#2aa198"></path><path d="M163 336.5L185 376.8L192 345.5Z" fill="#6fb4ad" stroke="#6fb4ad"></path><path d="M163 336.5L192 345.5L191 326.8Z" fill="#b1cdca" stroke="#b1cdca"></path><path d="M269 0L240 48.5L300 59.5Z" fill="#46a79f" stroke="#46a79f"></path><path d="M133 197L256 273.3L238 190.8Z" fill="#80bbb4" stroke="#80bbb4"></path><path d="M508 450L603 450L548 414.8Z" fill="#d1dad8" stroke="#d1dad8"></path><path d="M548 414.8L603 450L550 368.5Z" fill="#46a79f" stroke="#46a79f"></path><path d="M595 303.5L715 305.3L592 284Z" fill="#b1cdca" stroke="#b1cdca"></path><path d="M821 459.8L603 450L508 450Z" fill="#e0e0e0" stroke="#e0e0e0"></path><path d="M512 20.3L530 0L462 0Z" fill="#91c1bb" stroke="#91c1bb"></path><path d="M462 0L530 0L370 -10.7Z" fill="#c1d4d1" stroke="#c1d4d1"></path><path d="M589 51.5L530 0L512 20.3Z" fill="#80bbb4" stroke="#80bbb4"></path><path d="M370 -10.7L304 2.3L341 0Z" fill="#80bbb4" stroke="#80bbb4"></path><path d="M341 0L304 2.3L357 45.5Z" fill="#46a79f" stroke="#46a79f"></path><path d="M633 -9.7L594 0L589 51.5Z" fill="#d1dad8" stroke="#d1dad8"></path><path d="M589 51.5L594 0L530 0Z" fill="#5caea6" stroke="#5caea6"></path><path d="M670 126.8L655 105.5L639 164Z" fill="#b1cdca" stroke="#b1cdca"></path><path d="M603 450L668 376.5L565 348.5Z" fill="#6fb4ad" stroke="#6fb4ad"></path><path d="M648 171.8L670 126.8L639 164Z" fill="#a1c7c2" stroke="#a1c7c2"></path><path d="M734 120.3L670 126.8L648 171.8Z" fill="#d1dad8" stroke="#d1dad8"></path><path d="M240 48.5L161 130.8L212 123.3Z" fill="#80bbb4" stroke="#80bbb4"></path><path d="M212 123.3L161 130.8L238 190.8Z" fill="#e0e0e0" stroke="#e0e0e0"></path><path d="M670 126.8L669 101.3L655 105.5Z" fill="#e0e0e0" stroke="#e0e0e0"></path><path d="M655 105.5L669 101.3L606 77.5Z" fill="#c1d4d1" stroke="#c1d4d1"></path><path d="M161 130.8L133 197L238 190.8Z" fill="#80bbb4" stroke="#80bbb4"></path><path d="M304 2.3L269 0L300 59.5Z" fill="#5caea6" stroke="#5caea6"></path><path d="M106 95.5L116 141.8L161 130.8Z" fill="#d1dad8" stroke="#d1dad8"></path><path d="M370 -10.7L269 0L304 2.3Z" fill="#46a79f" stroke="#46a79f"></path><path d="M185 376.8L203 450L273 376.5Z" fill="#5caea6" stroke="#5caea6"></path><path d="M59 450L203 450L185 376.8Z" fill="#2aa198" stroke="#2aa198"></path><path d="M116 141.8L125 205L133 197Z" fill="#d1dad8" stroke="#d1dad8"></path><path d="M133 197L125 205L191 326.8Z" fill="#46a79f" stroke="#46a79f"></path><path d="M668 376.5L715 305.3L595 303.5Z" fill="#e0e0e0" stroke="#e0e0e0"></path><path d="M670 126.8L734 120.3L669 101.3Z" fill="#e0e0e0" stroke="#e0e0e0"></path><path d="M125 205L132 341.3L163 336.5Z" fill="#2aa198" stroke="#2aa198"></path><path d="M163 336.5L132 341.3L185 376.8Z" fill="#b1cdca" stroke="#b1cdca"></path><path d="M633 -9.7L589 51.5L606 77.5Z" fill="#c1d4d1" stroke="#c1d4d1"></path><path d="M530 0L633 -9.7L370 -10.7Z" fill="#c1d4d1" stroke="#c1d4d1"></path><path d="M668 376.5L710 347.3L715 305.3Z" fill="#a1c7c2" stroke="#a1c7c2"></path><path d="M716 348.8L710 347.3L668 376.5Z" fill="#b1cdca" stroke="#b1cdca"></path><path d="M710 347.3L720 334.8L715 305.3Z" fill="#80bbb4" stroke="#80bbb4"></path><path d="M690 420.8L716 348.8L668 376.5Z" fill="#b1cdca" stroke="#b1cdca"></path><path d="M710 347.3L718 344.5L720 334.8Z" fill="#5caea6" stroke="#5caea6"></path><path d="M716 348.8L718 344.5L710 347.3Z" fill="#2aa198" stroke="#2aa198"></path><path d="M678 450L690 420.8L668 376.5Z" fill="#a1c7c2" stroke="#a1c7c2"></path><path d="M810 224.3L771 263L831 270Z" fill="#5caea6" stroke="#5caea6"></path><path d="M161 130.8L116 141.8L133 197Z" fill="#e0e0e0" stroke="#e0e0e0"></path><path d="M125 205L72 295.5L132 341.3Z" fill="#46a79f" stroke="#46a79f"></path><path d="M106 95.5L161 130.8L104 68.5Z" fill="#e0e0e0" stroke="#e0e0e0"></path><path d="M821 459.8L678 450L603 450Z" fill="#5caea6" stroke="#5caea6"></path><path d="M603 450L678 450L668 376.5Z" fill="#e0e0e0" stroke="#e0e0e0"></path><path d="M821 459.8L683 450L678 450Z" fill="#91c1bb" stroke="#91c1bb"></path><path d="M678 450L683 450L690 420.8Z" fill="#80bbb4" stroke="#80bbb4"></path><path d="M720 334.8L818 363.5L771 263Z" fill="#b1cdca" stroke="#b1cdca"></path><path d="M687 0L633 -9.7L606 77.5Z" fill="#46a79f" stroke="#46a79f"></path><path d="M594 0L633 -9.7L530 0Z" fill="#91c1bb" stroke="#91c1bb"></path><path d="M771 263L648 171.8L715 305.3Z" fill="#d1dad8" stroke="#d1dad8"></path><path d="M771 263L734 120.3L648 171.8Z" fill="#5caea6" stroke="#5caea6"></path><path d="M669 101.3L687 0L606 77.5Z" fill="#91c1bb" stroke="#91c1bb"></path><path d="M370 -10.7L204 -12.7L269 0Z" fill="#b1cdca" stroke="#b1cdca"></path><path d="M269 0L204 -12.7L240 48.5Z" fill="#d1dad8" stroke="#d1dad8"></path><path d="M633 -9.7L204 -12.7L370 -10.7Z" fill="#c1d4d1" stroke="#c1d4d1"></path><path d="M104 68.5L161 130.8L110 41.3Z" fill="#91c1bb" stroke="#91c1bb"></path><path d="M66 234.3L72 295.5L125 205Z" fill="#2aa198" stroke="#2aa198"></path><path d="M66 234.3L125 205L46 191.8Z" fill="#46a79f" stroke="#46a79f"></path><path d="M132 341.3L63 392.8L185 376.8Z" fill="#b1cdca" stroke="#b1cdca"></path><path d="M831 270L771 263L818 363.5Z" fill="#a1c7c2" stroke="#a1c7c2"></path><path d="M720 334.8L771 263L715 305.3Z" fill="#c1d4d1" stroke="#c1d4d1"></path><path d="M718 344.5L716 348.8L818 363.5Z" fill="#91c1bb" stroke="#91c1bb"></path><path d="M46 191.8L125 205L116 141.8Z" fill="#c1d4d1" stroke="#c1d4d1"></path><path d="M110 41.3L161 130.8L240 48.5Z" fill="#46a79f" stroke="#46a79f"></path><path d="M36 161L46 191.8L116 141.8Z" fill="#5caea6" stroke="#5caea6"></path><path d="M739 53.3L687 0L669 101.3Z" fill="#6fb4ad" stroke="#6fb4ad"></path><path d="M204 -12.7L157 -9.7L240 48.5Z" fill="#2aa198" stroke="#2aa198"></path><path d="M157 -9.7L110 41.3L240 48.5Z" fill="#46a79f" stroke="#46a79f"></path><path d="M36 161L116 141.8L106 95.5Z" fill="#a1c7c2" stroke="#a1c7c2"></path><path d="M734 120.3L739 53.3L669 101.3Z" fill="#91c1bb" stroke="#91c1bb"></path><path d="M778 105.8L739 53.3L734 120.3Z" fill="#91c1bb" stroke="#91c1bb"></path><path d="M36 161L106 95.5L0 90.3Z" fill="#e0e0e0" stroke="#e0e0e0"></path><path d="M66 234.3L0 269.5L72 295.5Z" fill="#6fb4ad" stroke="#6fb4ad"></path><path d="M1 324.3L63 392.8L72 295.5Z" fill="#46a79f" stroke="#46a79f"></path><path d="M72 295.5L63 392.8L132 341.3Z" fill="#6fb4ad" stroke="#6fb4ad"></path><path d="M739 53.3L713 0L687 0Z" fill="#d1dad8" stroke="#d1dad8"></path><path d="M687 0L713 0L633 -9.7Z" fill="#46a79f" stroke="#46a79f"></path><path d="M157 -9.7L126 0L110 41.3Z" fill="#46a79f" stroke="#46a79f"></path><path d="M0 162.8L36 161L0 90.3Z" fill="#d1dad8" stroke="#d1dad8"></path><path d="M739 53.3L714 0L713 0Z" fill="#2aa198" stroke="#2aa198"></path><path d="M713 0L714 0L633 -9.7Z" fill="#5caea6" stroke="#5caea6"></path><path d="M780 109.5L778 105.8L734 120.3Z" fill="#46a79f" stroke="#46a79f"></path><path d="M739 53.3L790 0.3L714 0Z" fill="#91c1bb" stroke="#91c1bb"></path><path d="M810 224.3L780 109.5L734 120.3Z" fill="#c1d4d1" stroke="#c1d4d1"></path><path d="M771 263L810 224.3L734 120.3Z" fill="#e0e0e0" stroke="#e0e0e0"></path><path d="M771 450L716 348.8L690 420.8Z" fill="#a1c7c2" stroke="#a1c7c2"></path><path d="M157 -9.7L116 0L126 0Z" fill="#2aa198" stroke="#2aa198"></path><path d="M126 0L116 0L110 41.3Z" fill="#b1cdca" stroke="#b1cdca"></path><path d="M106 95.5L104 68.5L0 90.3Z" fill="#46a79f" stroke="#46a79f"></path><path d="M48 450L59 450L63 392.8Z" fill="#e0e0e0" stroke="#e0e0e0"></path><path d="M821 459.8L771 450L683 450Z" fill="#a1c7c2" stroke="#a1c7c2"></path><path d="M683 450L771 450L690 420.8Z" fill="#a1c7c2" stroke="#a1c7c2"></path><path d="M818 363.5L720 334.8L718 344.5Z" fill="#5caea6" stroke="#5caea6"></path><path d="M810 224.3L848 217.3L780 109.5Z" fill="#80bbb4" stroke="#80bbb4"></path><path d="M203 450L51 450.8L259 452.8Z" fill="#46a79f" stroke="#46a79f"></path><path d="M63 392.8L59 450L185 376.8Z" fill="#e0e0e0" stroke="#e0e0e0"></path><path d="M51 450.8L59 450L48 450Z" fill="#5caea6" stroke="#5caea6"></path><path d="M771 450L818 363.5L716 348.8Z" fill="#b1cdca" stroke="#b1cdca"></path><path d="M821 459.8L789 450L771 450Z" fill="#b1cdca" stroke="#b1cdca"></path><path d="M771 450L789 450L818 363.5Z" fill="#6fb4ad" stroke="#6fb4ad"></path><path d="M59 450L51 450.8L203 450Z" fill="#80bbb4" stroke="#80bbb4"></path><path d="M0 262L66 234.3L46 191.8Z" fill="#b1cdca" stroke="#b1cdca"></path><path d="M0 162.8L0 262L46 191.8Z" fill="#5caea6" stroke="#5caea6"></path><path d="M0 262L0 269.5L66 234.3Z" fill="#c1d4d1" stroke="#c1d4d1"></path><path d="M0 408.8L48 450L63 392.8Z" fill="#46a79f" stroke="#46a79f"></path><path d="M0 269.5L0 298.3L72 295.5Z" fill="#80bbb4" stroke="#80bbb4"></path><path d="M0 298.3L1 324.3L72 295.5Z" fill="#d1dad8" stroke="#d1dad8"></path><path d="M59 0L104 68.5L110 41.3Z" fill="#e0e0e0" stroke="#e0e0e0"></path><path d="M36 161L0 162.8L46 191.8Z" fill="#a1c7c2" stroke="#a1c7c2"></path><path d="M880 204L848 217.3L900 234.8Z" fill="#2aa198" stroke="#2aa198"></path><path d="M831 270L848 217.3L810 224.3Z" fill="#d1dad8" stroke="#d1dad8"></path><path d="M843 73.5L790 0.3L778 105.8Z" fill="#2aa198" stroke="#2aa198"></path><path d="M778 105.8L790 0.3L739 53.3Z" fill="#2aa198" stroke="#2aa198"></path><path d="M157 -9.7L59 0L116 0Z" fill="#c1d4d1" stroke="#c1d4d1"></path><path d="M116 0L59 0L110 41.3Z" fill="#5caea6" stroke="#5caea6"></path><path d="M843 73.5L778 105.8L780 109.5Z" fill="#b1cdca" stroke="#b1cdca"></path><path d="M714 0L790 0.3L633 -9.7Z" fill="#2aa198" stroke="#2aa198"></path><path d="M0 298.3L0 408.8L1 324.3Z" fill="#2aa198" stroke="#2aa198"></path><path d="M1 324.3L0 408.8L63 392.8Z" fill="#6fb4ad" stroke="#6fb4ad"></path><path d="M0 58.5L0 90.3L104 68.5Z" fill="#e0e0e0" stroke="#e0e0e0"></path><path d="M259 452.8L821 459.8L452 450Z" fill="#91c1bb" stroke="#91c1bb"></path><path d="M789 450L821 459.8L818 363.5Z" fill="#46a79f" stroke="#46a79f"></path><path d="M900 234.8L848 217.3L831 270Z" fill="#d1dad8" stroke="#d1dad8"></path><path d="M51 450.8L821 459.8L259 452.8Z" fill="#2aa198" stroke="#2aa198"></path><path d="M900 140.5L843 73.5L780 109.5Z" fill="#46a79f" stroke="#46a79f"></path><path d="M59 0L0 58.5L104 68.5Z" fill="#6fb4ad" stroke="#6fb4ad"></path><path d="M900 234.8L831 270L900 316.5Z" fill="#c1d4d1" stroke="#c1d4d1"></path><path d="M848 217.3L882 188.8L780 109.5Z" fill="#c1d4d1" stroke="#c1d4d1"></path><path d="M0 408.8L0 450L48 450Z" fill="#e0e0e0" stroke="#e0e0e0"></path><path d="M48 450L0 450L51 450.8Z" fill="#d1dad8" stroke="#d1dad8"></path><path d="M880 204L882 188.8L848 217.3Z" fill="#b1cdca" stroke="#b1cdca"></path><path d="M900 316.5L831 270L818 363.5Z" fill="#5caea6" stroke="#5caea6"></path><path d="M880 204L900 226L882 188.8Z" fill="#b1cdca" stroke="#b1cdca"></path><path d="M882 188.8L900 140.5L780 109.5Z" fill="#a1c7c2" stroke="#a1c7c2"></path><path d="M900 234.8L900 226L880 204Z" fill="#80bbb4" stroke="#80bbb4"></path><path d="M900 327.3L900 316.5L818 363.5Z" fill="#80bbb4" stroke="#80bbb4"></path><path d="M900 447.8L900 327.3L818 363.5Z" fill="#c1d4d1" stroke="#c1d4d1"></path><path d="M157 -9.7L0 0L59 0Z" fill="#a1c7c2" stroke="#a1c7c2"></path><path d="M59 0L0 0L0 58.5Z" fill="#46a79f" stroke="#46a79f"></path><path d="M204 -12.7L0 0L157 -9.7Z" fill="#80bbb4" stroke="#80bbb4"></path><path d="M900 226L900 140.5L882 188.8Z" fill="#80bbb4" stroke="#80bbb4"></path><path d="M843 73.5L889 0L790 0.3Z" fill="#5caea6" stroke="#5caea6"></path><path d="M900 140.5L889 72.5L843 73.5Z" fill="#a1c7c2" stroke="#a1c7c2"></path><path d="M821 459.8L900 447.8L818 363.5Z" fill="#80bbb4" stroke="#80bbb4"></path><path d="M821 459.8L900 450L900 447.8Z" fill="#c1d4d1" stroke="#c1d4d1"></path><path d="M889 72.5L889 0L843 73.5Z" fill="#b1cdca" stroke="#b1cdca"></path><path d="M790 0.3L889 0L633 -9.7Z" fill="#46a79f" stroke="#46a79f"></path><path d="M900 6.3L889 0L889 72.5Z" fill="#b1cdca" stroke="#b1cdca"></path><path d="M900 140.5L900 6.3L889 72.5Z" fill="#c1d4d1" stroke="#c1d4d1"></path><path d="M900 6.3L900 0L889 0Z" fill="#6fb4ad" stroke="#6fb4ad"></path><path d="M889 0L900 0L633 -9.7Z" fill="#a1c7c2" stroke="#a1c7c2"></path></g></svg>