<svg id="visual" viewBox="0 0 900 450" width="900" height="450" xmlns="http://www.w3.org/2000/svg" xmlns:xlink="http://www.w3.org/1999/xlink" version="1.1"><path d="M0 24L150 28L300 24L450 51L600 10L750 42L900 37L900 0L750 0L600 0L450 0L300 0L150 0L0 0Z" fill="#2aa198"></path><path d="M0 46L150 87L300 91L450 114L600 51L750 51L900 82L900 35L750 40L600 8L450 49L300 22L150 26L0 22Z" fill="#188f91"></path><path d="M0 163L150 217L300 150L450 177L600 280L750 172L900 181L900 80L750 49L600 49L450 112L300 89L150 85L0 44Z" fill="#127d88"></path><path d="M0 253L150 285L300 258L450 285L600 352L750 213L900 271L900 179L750 170L600 278L450 175L300 148L150 215L0 161Z" fill="#176b7b"></path><path d="M0 276L150 289L300 307L450 307L600 361L750 253L900 294L900 269L750 211L600 350L450 283L300 256L150 283L0 251Z" fill="#1d596c"></path><path d="M0 334L150 348L300 325L450 352L600 393L750 316L900 370L900 292L750 251L600 359L450 305L300 305L150 287L0 274Z" fill="#21495c"></path><path d="M0 384L150 384L300 366L450 402L600 433L750 361L900 379L900 368L750 314L600 391L450 350L300 323L150 346L0 332Z" fill="#21394a"></path><path d="M0 451L150 451L300 451L450 451L600 451L750 451L900 451L900 377L750 359L600 431L450 400L300 364L150 382L0 382Z" fill="#1e2a38"></path></svg>